<?xml version="1.0" encoding="UTF-8"?>
<svg version="1.1" xmlns="http://www.w3.org/2000/svg" width="739" height="1495">
<path d="M0 0 C0.928125 0.763125 1.85625 1.52625 2.8125 2.3125 C2.8125 2.9725 2.8125 3.6325 2.8125 4.3125 C1.3275 5.3025 1.3275 5.3025 -0.1875 6.3125 C0.1425 8.6225 0.4725 10.9325 0.8125 13.3125 C2.4625 12.9825 4.1125 12.6525 5.8125 12.3125 C8.37461421 17.11646415 8.47839615 22.00969288 7.8125 27.3125 C6.79648745 30.18771077 5.37177848 32.69965499 3.8125 35.3125 C0.13399709 41.87199227 0.13399709 41.87199227 -0.1875 49.3125 C0.1425 49.9725 0.4725 50.6325 0.8125 51.3125 C4.0186192 50.34320815 6.63740562 49.42922959 9.4375 47.5625 C10.22125 47.15 11.005 46.7375 11.8125 46.3125 C14.125 47.125 14.125 47.125 15.8125 48.3125 C15.34543148 50.49215311 14.85450607 52.23837165 13.75 54.1875 C12.46506878 57.10001077 12.49624096 59.14990957 12.8125 62.3125 C14.21174945 65.61351131 14.21174945 65.61351131 15.8125 68.3125 C19.93125235 66.78661125 21.51175963 65.91536664 23.5078125 61.9140625 C23.99153075 60.59113622 24.46784169 59.26548282 24.9375 57.9375 C26.66914777 53.63546953 27.94402212 50.91817873 31.8203125 48.21484375 C35.89471607 46.5310842 39.38594566 45.3125 43.8125 45.3125 C44.08513672 44.42498047 44.08513672 44.42498047 44.36328125 43.51953125 C47.23877346 34.48016344 47.23877346 34.48016344 49.8125 31.3125 C52.375 30.4375 52.375 30.4375 54.8125 30.3125 C55.4725 30.6425 56.1325 30.9725 56.8125 31.3125 C58.81146911 30.99486347 58.81146911 30.99486347 60.9375 30.375 C61.66195313 30.18035156 62.38640625 29.98570313 63.1328125 29.78515625 C63.68710937 29.62917969 64.24140625 29.47320312 64.8125 29.3125 C64.94785156 28.69246094 65.08320312 28.07242188 65.22265625 27.43359375 C66.26053324 23.70136059 68.6131879 22.02211188 71.87890625 20.08984375 C79.86600343 15.89757926 88.63633209 11.74781274 97.8125 12.3125 C98.616875 12.663125 99.42125 13.01375 100.25 13.375 C105.75607774 15.38941869 112.38141044 12.78765415 117.9375 11.375 C118.62714844 11.20548828 119.31679688 11.03597656 120.02734375 10.86132812 C122.98346781 10.11805793 125.80538304 9.31541193 128.62890625 8.16015625 C131.37760659 7.09312946 133.02273255 7.51542358 135.8125 8.3125 C132.10753345 11.32278533 128.31631392 14.19782613 124.484375 17.04296875 C122.87218331 18.20764195 122.87218331 18.20764195 121.8125 19.3125 C122.09980055 21.65194736 122.43186779 23.9864143 122.8125 26.3125 C126.7938783 27.6396261 130.66295227 27.38165913 134.8125 27.3125 C135.1425 28.3025 135.4725 29.2925 135.8125 30.3125 C135.1525 30.3125 134.4925 30.3125 133.8125 30.3125 C133.6578125 31.3953125 133.6578125 31.3953125 133.5 32.5 C132.75263068 35.55741993 131.53204811 37.69579635 129.8125 40.3125 C137.04062031 42.95354396 142.66072837 42.05536696 149.8125 39.3125 C151.86529996 37.71131603 153.86901499 36.04473664 155.8125 34.3125 C159.06047114 32.7238776 162.39749592 31.49232708 165.8125 30.3125 C166.83150391 29.95285156 166.83150391 29.95285156 167.87109375 29.5859375 C172.2763878 28.1648749 172.2763878 28.1648749 174.71606445 28.83666992 C177.34420724 29.43318213 178.90058857 28.98224308 181.48046875 28.23828125 C182.37443359 27.98240234 183.26839844 27.72652344 184.18945312 27.46289062 C185.11693359 27.18638672 186.04441406 26.90988281 187 26.625 C187.90814453 26.36783203 188.81628906 26.11066406 189.75195312 25.84570312 C200.0800298 23.07189204 200.0800298 23.07189204 208.8125 17.3125 C214.91635168 15.26099798 222.02369905 13.77150869 228.13671875 16.2578125 C232.65766567 18.63411187 236.76493631 21.15673134 239.8125 25.3125 C240.03827797 26.95352039 240.22191289 28.60060983 240.375 30.25 C240.93284837 33.67316044 241.304823 34.91461474 244.0703125 37.08203125 C247.26449546 38.69615837 250.46895736 40.0349455 253.8125 41.3125 C255.8009526 42.09175845 257.78740737 42.8758252 259.77270508 43.66308594 C261.66203662 44.40304885 263.56324767 45.11246285 265.46484375 45.8203125 C268.79482569 47.30462184 271.17108564 48.81215565 273.8125 51.3125 C275.10333578 55.18500733 274.23868301 58.02811165 273.3125 61.875 C273.13452881 62.61717773 272.95655762 63.35935547 272.77319336 64.12402344 C271.31344116 69.90016922 269.48022759 75.49088649 267.375 81.0625 C267.09914063 81.81217041 266.82328125 82.56184082 266.5390625 83.33422852 C264.71969586 87.94919453 262.72437726 91.08122577 258.8125 94.3125 C258.1525 94.3125 257.4925 94.3125 256.8125 94.3125 C256.4825 95.3025 256.1525 96.2925 255.8125 97.3125 C254.15404035 98.76723883 252.43564277 100.15435877 250.6875 101.5 C243.3405288 107.0883813 243.3405288 107.0883813 237.8125 114.3125 C238.06014588 117.49497706 238.06014588 117.49497706 238.8125 120.3125 C237.62011719 120.869375 236.42773438 121.42625 235.19921875 122 C233.63213944 122.76946409 232.06576962 123.54037432 230.5 124.3125 C229.71431641 124.67472656 228.92863281 125.03695312 228.11914062 125.41015625 C223.96885804 127.49412793 221.54492576 128.91818008 219.98828125 133.41796875 C219.79210205 134.1042334 219.59592285 134.79049805 219.39379883 135.49755859 C218.60640282 137.95598024 217.36018193 139.10271014 215.3125 140.625 C212.97931489 142.41070527 210.85227224 144.19188313 208.8125 146.3125 C209.4725 148.2925 210.1325 150.2725 210.8125 152.3125 C205.65033423 156.06680238 202.25235624 157.98331836 195.8125 157.3125 C195.8125 153.3125 195.8125 153.3125 197.1875 151.8125 C197.72375 151.3175 198.26 150.8225 198.8125 150.3125 C200.79264837 147.18594995 200.89078697 144.96187705 200.8125 141.3125 C200.02746094 141.55226562 199.24242187 141.79203125 198.43359375 142.0390625 C192.12590711 143.81914585 187.91945511 144.94959425 181.8125 142.3125 C181.77382812 143.23869141 181.77382812 143.23869141 181.734375 144.18359375 C181.21993981 151.86504643 179.30437329 159.57099611 173.8125 165.3125 C173.1525 165.3125 172.4925 165.3125 171.8125 165.3125 C171.43182373 166.20243652 171.43182373 166.20243652 171.04345703 167.11035156 C169.67244896 169.56304748 168.30986781 170.80665253 166.1171875 172.546875 C165.40175781 173.12050781 164.68632813 173.69414062 163.94921875 174.28515625 C162.82966797 175.16494141 162.82966797 175.16494141 161.6875 176.0625 C160.93339844 176.66449219 160.17929687 177.26648438 159.40234375 177.88671875 C157.5441437 179.36857449 155.68084546 180.84347132 153.8125 182.3125 C156.2875 183.3025 156.2875 183.3025 158.8125 184.3125 C156.8325 186.9525 154.8525 189.5925 152.8125 192.3125 C155.2875 194.2925 155.2875 194.2925 157.8125 196.3125 C156.06286862 200.04616314 153.78872594 203.19894565 151.34765625 206.5078125 C147.37544617 213.76492913 146.38245036 221.64206705 145.5 229.75 C143.97276364 241.66997006 140.2701381 249.45971615 131.64453125 257.94921875 C129.8125 259.3125 129.8125 259.3125 126.8125 259.3125 C127.32261978 256.65987713 128.0893095 254.79209813 129.375 252.375 C130.8378158 249.25856633 130.94298586 247.66541931 130.8125 244.3125 C128.32174482 245.88872304 125.83477231 247.47049445 123.3515625 249.05859375 C120.79438476 250.69304059 118.22379686 252.30453097 115.6484375 253.91015625 C100.48659278 262.61687255 100.48659278 262.61687255 90.8125 276.3125 C94.06099977 274.59023504 94.06099977 274.59023504 94.8125 271.3125 C96.52734375 270.46875 96.52734375 270.46875 98.75 269.8125 C99.55695312 269.57015625 100.36390625 269.3278125 101.1953125 269.078125 C102.05898438 268.82546875 102.92265625 268.5728125 103.8125 268.3125 C104.69679688 268.01859375 105.58109375 267.7246875 106.4921875 267.421875 C107.36101563 267.13828125 108.22984375 266.8546875 109.125 266.5625 C109.92550781 266.29953125 110.72601562 266.0365625 111.55078125 265.765625 C114.0121939 265.27249224 115.45796799 265.51508412 117.8125 266.3125 C118.93627697 269.61685084 118.70804742 271.3631862 117.375 274.5625 C117.08753906 275.26890625 116.80007813 275.9753125 116.50390625 276.703125 C116.16166016 277.49976563 116.16166016 277.49976563 115.8125 278.3125 C113.5025 278.6425 111.1925 278.9725 108.8125 279.3125 C108.61914062 279.90417969 108.42578125 280.49585938 108.2265625 281.10546875 C106.86835281 285.2271645 105.49199415 289.3075524 103.8125 293.3125 C103.1525 293.3125 102.4925 293.3125 101.8125 293.3125 C101.4825 294.6325 101.1525 295.9525 100.8125 297.3125 C101.493125 297.1475 102.17375 296.9825 102.875 296.8125 C106.2289822 296.24160941 109.41639805 296.24590977 112.8125 296.3125 C111.49389111 300.92763112 109.59894563 304.41147612 106.8125 308.3125 C108.1325 308.9725 109.4525 309.6325 110.8125 310.3125 C110.5625 312.1875 110.5625 312.1875 109.8125 314.3125 C108.48782254 314.9962045 107.15386367 315.66214186 105.8125 316.3125 C105.52375 316.951875 105.235 317.59125 104.9375 318.25 C102.68964494 322.37106761 97.71052668 323.36314123 93.5 324.875 C89.76026881 325.85786794 89.76026881 325.85786794 88.8125 328.3125 C89.78096881 330.62432878 90.9356024 332.80328351 92.09765625 335.0234375 C92.8125 337.3125 92.8125 337.3125 92.2109375 339.390625 C87.64833513 345.66101708 79.27005206 349.21234399 72.57421875 352.765625 C68.11438732 355.26363525 63.72883895 358.01631884 59.8125 361.3125 C59.58640663 363.43614481 59.58640663 363.43614481 61.3125 364.9375 C62.055 365.618125 62.055 365.618125 62.8125 366.3125 C61.51041667 367.80989583 60.20833333 369.30729167 58.90625 370.8046875 C57.61677542 372.27186421 57.61677542 372.27186421 57.8125 374.3125 C58.8025 374.9725 59.7925 375.6325 60.8125 376.3125 C60.8125 379.3125 60.8125 379.3125 59.16796875 380.99609375 C58.45253906 381.57488281 57.73710938 382.15367187 57 382.75 C54.16129471 385.06129556 51.81903311 387.22990813 49.8125 390.3125 C49.8125 390.9725 49.8125 391.6325 49.8125 392.3125 C53.1125 392.6425 56.4125 392.9725 59.8125 393.3125 C60.92971457 397.78135826 60.65275669 397.63198663 58.8125 401.3125 C59.15422446 403.49953657 59.77731649 405.23459366 60.6875 407.25 C60.72875 407.930625 60.77 408.61125 60.8125 409.3125 C59.16761706 411.00066933 57.49912458 412.66603315 55.8125 414.3125 C54.63508968 417.76063022 54.86645017 419.87033409 55.8125 423.3125 C56.57433594 422.69761719 57.33617187 422.08273437 58.12109375 421.44921875 C71.26764055 411.15847613 71.26764055 411.15847613 78.921875 411.37109375 C80.875 411.625 80.875 411.625 83.8125 412.3125 C82.26391956 421.0464937 78.28158898 428.72970148 73.8125 436.3125 C73.1525 436.3125 72.4925 436.3125 71.8125 436.3125 C71.59464844 437.01117188 71.37679688 437.70984375 71.15234375 438.4296875 C69.48086287 442.02605162 67.08336465 444.60554635 64.375 447.4375 C63.63926758 448.22447266 63.63926758 448.22447266 62.88867188 449.02734375 C61.53998751 450.46521237 60.17678599 451.88942606 58.8125 453.3125 C58.24402344 453.92867188 57.67554688 454.54484375 57.08984375 455.1796875 C55.8125 456.3125 55.8125 456.3125 53.8125 456.3125 C53.8125 453.6725 53.8125 451.0325 53.8125 448.3125 C53.1525 448.3125 52.4925 448.3125 51.8125 448.3125 C51.55597656 449.14007813 51.29945313 449.96765625 51.03515625 450.8203125 C47.5262676 460.84250563 43.34012024 470.31623677 34.59765625 476.734375 C32.5511951 478.54350039 32.17740767 479.64809481 31.8125 482.3125 C38.31100516 481.09403028 42.35053997 478.16638895 46.8125 473.3125 C48.80208527 470.09621635 48.80208527 470.09621635 49.8125 467.3125 C50.4725 467.3125 51.1325 467.3125 51.8125 467.3125 C52.06 466.673125 52.3075 466.03375 52.5625 465.375 C53.8125 463.3125 53.8125 463.3125 55.890625 462.68359375 C56.52484375 462.56113281 57.1590625 462.43867188 57.8125 462.3125 C57.08669118 480.35760883 57.08669118 480.35760883 49.9375 487.0625 C44.11465518 492.56364069 41.15385436 499.47616661 39.8125 507.3125 C42.7825 506.6525 45.7525 505.9925 48.8125 505.3125 C51.85584145 516.38109116 45.3939322 530.85615775 41.8125 541.3125 C41.53277344 542.13105469 41.25304687 542.94960938 40.96484375 543.79296875 C33.46308629 565.51883775 25.10178584 588.3507715 12.35888672 607.63085938 C8.43931079 613.0756585 8.43931079 613.0756585 8.0625 619.4375 C8.86819308 623.60024759 8.57796843 624.53192212 7.04296875 628.29296875 C4.37232292 635.24703054 2.78773754 642.35237501 1.18945312 649.61523438 C-0.31628565 656.02795838 -2.25647615 661.01523865 -6.1875 666.3125 C-6.84234375 667.19679688 -7.4971875 668.08109375 -8.171875 668.9921875 C-8.75453125 669.71664062 -9.3371875 670.44109375 -9.9375 671.1875 C-14.29321865 676.62267936 -14.35546073 680.00199567 -14.515625 686.953125 C-15.1875 690.3125 -15.1875 690.3125 -17.72265625 693.25390625 C-20.73642687 696.99365648 -20.59046641 699.45547206 -20.375 704 C-20.41160436 715.8402038 -26.71102874 725.36115146 -32.9609375 735.06640625 C-36.77660327 741.40746931 -36.55178075 747.32370133 -36.09228516 754.5390625 C-35.81531188 760.0559179 -36.48440136 762.91673543 -40.1875 767.3125 C-41.074375 768.1375 -41.96125 768.9625 -42.875 769.8125 C-45.57653997 772.94661284 -45.52919301 775.75984099 -45.6875 779.8125 C-46.3260734 795.82724875 -55.21237998 810.85566611 -62.6875 824.75 C-71.91329939 841.96292274 -77.93083065 859.78890882 -83.5625 878.4375 C-94.64175874 915.02059685 -94.64175874 915.02059685 -102.1875 927.3125 C-103.41706491 929.36018623 -103.41706491 929.36018623 -103.0390625 932.125 C-103.21780158 935.96318656 -104.21694691 937.32550995 -106.5625 940.3125 C-112.00235131 947.29700044 -112.65292705 954.13543803 -113.625 962.75390625 C-114.62608513 969.08716009 -116.57988442 971.92429469 -121.1875 976.3125 C-124.36570592 979.86210546 -125.91606967 982.79444519 -127.1875 987.375 C-128.44213178 991.77860879 -129.80722515 996.07352388 -131.375 1000.375 C-133.11467785 1005.46591774 -133.69076024 1010.15761369 -133.81640625 1015.5234375 C-135.05461493 1024.82955328 -143.47069438 1032.78005507 -149.9375 1039.0625 C-155.68127016 1044.44443274 -155.68127016 1044.44443274 -158.4921875 1051.53125 C-158.53441267 1053.97764689 -158.53441267 1053.97764689 -158.1875 1057.3125 C-157.28 1056.9825 -156.3725 1056.6525 -155.4375 1056.3125 C-152.1875 1055.3125 -152.1875 1055.3125 -148.1875 1055.3125 C-148.74229943 1058.93823148 -149.90170876 1060.10291649 -152.75 1062.3125 C-155.27946629 1064.67877492 -156.13323651 1065.6884699 -156.4375 1069.1875 C-156.3124031 1071.27244839 -156.18218604 1073.35709582 -156.046875 1075.44140625 C-156.24501682 1079.48680167 -157.82414869 1081.12118274 -160.66015625 1083.84375 C-162.41751754 1085.40410784 -162.41751754 1085.40410784 -163.9375 1088.25 C-164.55625 1089.2709375 -164.55625 1089.2709375 -165.1875 1090.3125 C-165.8475 1090.3125 -166.5075 1090.3125 -167.1875 1090.3125 C-168.39022819 1087.90704362 -168.28821472 1086.36253047 -168.25 1083.6875 C-168.24097656 1082.87023438 -168.23195313 1082.05296875 -168.22265625 1081.2109375 C-168.20525391 1080.27121094 -168.20525391 1080.27121094 -168.1875 1079.3125 C-171.93924313 1081.56354588 -173.75345288 1082.99800771 -175.1484375 1087.22265625 C-175.63828475 1089.47437345 -176.09865223 1091.73268043 -176.53125 1093.99609375 C-177.37726691 1098.27150064 -178.72786296 1102.21161497 -180.1875 1106.3125 C-179.5275 1106.3125 -178.8675 1106.3125 -178.1875 1106.3125 C-179.79948434 1113.86579807 -182.09503109 1120.94891397 -184.75 1128.1875 C-187.6784807 1136.22908072 -189.49242376 1143.74462149 -190.1875 1152.3125 C-189.1975 1151.9825 -188.2075 1151.6525 -187.1875 1151.3125 C-186.5275 1151.6425 -185.8675 1151.9725 -185.1875 1152.3125 C-186.88345151 1156.40686813 -189.75207407 1159.50882246 -192.625 1162.8125 C-194.071842 1164.48939178 -195.51566127 1166.16790712 -196.94458008 1167.86010742 C-197.92334872 1169.00383059 -198.94301727 1170.1125565 -199.9765625 1171.20703125 C-201.83498733 1174.43829249 -201.85453018 1177.85893847 -202.125 1181.5 C-202.76860261 1188.10319566 -203.71927191 1193.54356615 -207.1875 1199.3125 C-207.60902344 1200.0446875 -208.03054688 1200.776875 -208.46484375 1201.53125 C-212.22353793 1207.61179681 -216.99813345 1212.43449545 -222.1875 1217.3125 C-220.1129644 1218.5361068 -220.1129644 1218.5361068 -217.1875 1218.3125 C-217.8605778 1226.83815217 -222.51949713 1234.15866831 -228.1875 1240.3125 C-231.1875 1239.3125 -231.1875 1239.3125 -232.06640625 1237.60546875 C-232.29199219 1236.91066406 -232.51757812 1236.21585938 -232.75 1235.5 C-233.7242848 1232.64380718 -234.74565485 1229.97436798 -236.1875 1227.3125 C-234.8675 1226.9825 -233.5475 1226.6525 -232.1875 1226.3125 C-232.1875 1225.3225 -232.1875 1224.3325 -232.1875 1223.3125 C-233.5075 1222.9825 -234.8275 1222.6525 -236.1875 1222.3125 C-236.9375 1220.6875 -236.9375 1220.6875 -237.1875 1218.3125 C-235.5625 1215.0625 -235.5625 1215.0625 -233.1875 1212.3125 C-230.625 1212.125 -230.625 1212.125 -228.1875 1212.3125 C-225.07351834 1209.97497046 -223.98839675 1206.91349837 -222.5625 1203.375 C-221.92441406 1201.81458984 -221.92441406 1201.81458984 -221.2734375 1200.22265625 C-219.98246971 1196.83069668 -219.98246971 1196.83069668 -219.1875 1193.3125 C-220.54194301 1191.54059091 -220.54194301 1191.54059091 -222.1875 1190.3125 C-221.10881883 1188.07659291 -219.96740041 1185.94927865 -218.6796875 1183.82421875 C-213.809401 1175.31886334 -213.4819528 1168.87658424 -214.1875 1159.3125 C-214.80625 1159.209375 -215.425 1159.10625 -216.0625 1159 C-218.1875 1158.3125 -218.1875 1158.3125 -220.1875 1155.3125 C-220.41455078 1153.13598633 -220.41455078 1153.13598633 -220.3828125 1150.64453125 C-220.37314453 1149.30551758 -220.37314453 1149.30551758 -220.36328125 1147.93945312 C-220.33814453 1146.54629883 -220.33814453 1146.54629883 -220.3125 1145.125 C-220.30347656 1144.18462891 -220.29445312 1143.24425781 -220.28515625 1142.27539062 C-220.26159056 1139.95417032 -220.22869116 1137.63346356 -220.1875 1135.3125 C-220.69539062 1135.60125 -221.20328125 1135.89 -221.7265625 1136.1875 C-226.06558125 1138.52764494 -229.12685183 1139.81856482 -234.1875 1139.3125 C-232.94110164 1128.15883258 -229.6620475 1119.06118256 -224.68017578 1109.02880859 C-222.06550562 1103.68181298 -220.3146631 1099.30924401 -220.1875 1093.3125 C-221.95904652 1090.78659152 -221.95904652 1090.78659152 -224.1875 1089.3125 C-223.1875 1087.3125 -222.1875 1085.3125 -221.1875 1083.3125 C-222.22197266 1083.98345703 -222.22197266 1083.98345703 -223.27734375 1084.66796875 C-228.54958872 1088.059852 -233.79404426 1091.28139633 -239.41015625 1094.07421875 C-241.61475489 1095.61016989 -242.35145537 1096.7665788 -243.1875 1099.3125 C-242.8995193 1100.65635863 -242.57119071 1101.99277642 -242.1875 1103.3125 C-243.18652344 1104.16972656 -244.18554688 1105.02695313 -245.21484375 1105.91015625 C-246.51901979 1107.06421131 -247.82236186 1108.21920931 -249.125 1109.375 C-249.78435547 1109.93638672 -250.44371094 1110.49777344 -251.12304688 1111.07617188 C-254.28999047 1113.91830074 -256.51030707 1115.91589947 -257.12890625 1120.24609375 C-257.14824219 1121.25800781 -257.16757812 1122.26992187 -257.1875 1123.3125 C-256.1975 1123.3125 -255.2075 1123.3125 -254.1875 1123.3125 C-253.53090186 1128.56528515 -255.11400156 1131.4649079 -257.80078125 1135.7734375 C-258.25839844 1136.28132813 -258.71601563 1136.78921875 -259.1875 1137.3125 C-260.1775 1137.3125 -261.1675 1137.3125 -262.1875 1137.3125 C-263.1775 1135.8275 -263.1775 1135.8275 -264.1875 1134.3125 C-272.89692558 1143.69188139 -279.30493833 1155.00875405 -285.1875 1166.3125 C-284.5996875 1165.838125 -284.011875 1165.36375 -283.40625 1164.875 C-280.52042525 1162.84272905 -277.56623122 1162.27785178 -274.1875 1161.3125 C-273.48625 1160.77625 -272.785 1160.24 -272.0625 1159.6875 C-269.6596612 1157.92541822 -268.09770075 1158.06998327 -265.1875 1158.3125 C-266.55733503 1161.47365776 -267.1765638 1162.3052092 -270.1875 1164.3125 C-271.13882813 1164.60511719 -272.09015625 1164.89773438 -273.0703125 1165.19921875 C-282.47913332 1168.5595119 -287.87129013 1177.31586181 -292.59375 1185.58984375 C-294.1875 1188.3125 -294.1875 1188.3125 -296.1875 1190.3125 C-296.46062146 1192.41991836 -296.46062146 1192.41991836 -296.5 1194.75 C-296.87299786 1199.04638281 -296.87299786 1199.04638281 -299.625 1201.375 C-302.1875 1202.3125 -302.1875 1202.3125 -304.1875 1202.3125 C-304.11789062 1203.43398437 -304.11789062 1203.43398437 -304.046875 1204.578125 C-303.74976165 1212.68507503 -303.74976165 1212.68507503 -306.0625 1216 C-308.1875 1217.3125 -308.1875 1217.3125 -310.1875 1217.3125 C-310.20167969 1218.20324219 -310.21585937 1219.09398437 -310.23046875 1220.01171875 C-310.58576742 1229.81604145 -311.84940514 1239.32921499 -313.5 1249 C-313.70069092 1250.19778076 -313.90138184 1251.39556152 -314.1081543 1252.62963867 C-318.1789167 1275.689932 -318.1789167 1275.689932 -321.91772461 1278.71020508 C-323.8125 1279.4375 -323.8125 1279.4375 -327.1875 1280.3125 C-328.6693964 1282.3476761 -328.6693964 1282.3476761 -329.1875 1284.3125 C-327.5375 1284.3125 -325.8875 1284.3125 -324.1875 1284.3125 C-325.48001701 1293.22406463 -325.48001701 1293.22406463 -327.8125 1296.8125 C-331.12761153 1298.90625465 -334.36909122 1299.43614389 -338.1875 1300.3125 C-339.41096529 1302.21162329 -339.41096529 1302.21162329 -338.75 1304 C-337.87923721 1307.57980259 -337.50715425 1309.60152316 -338.1875 1313.3125 C-341.20890172 1316.43224753 -344.51679533 1318.99574378 -348.1875 1321.3125 C-348.8475 1321.3125 -349.5075 1321.3125 -350.1875 1321.3125 C-350.1875 1321.9725 -350.1875 1322.6325 -350.1875 1323.3125 C-350.950625 1323.910625 -351.71375 1324.50875 -352.5 1325.125 C-355.26546124 1327.37595683 -356.66677342 1329.11097036 -358.1875 1332.3125 C-358.1875 1333.6325 -358.1875 1334.9525 -358.1875 1336.3125 C-356.8675 1336.6425 -355.5475 1336.9725 -354.1875 1337.3125 C-353.70102498 1347.04200033 -355.23230984 1358.25438331 -361.1875 1366.3125 C-363.42530506 1368.285048 -365.63082761 1369.73916315 -368.1875 1371.3125 C-367.8575 1371.9725 -367.5275 1372.6325 -367.1875 1373.3125 C-366.54702538 1379.58915128 -368.41447439 1383.85310583 -371.1875 1389.3125 C-376.0625 1388.4375 -376.0625 1388.4375 -377.1875 1387.3125 C-378.93216622 1391.06080633 -379.36886588 1393.82276168 -379.1875 1397.9375 C-378.96642031 1402.98088046 -378.96642031 1402.98088046 -381.1875 1406.3125 C-380.8575 1406.9725 -380.5275 1407.6325 -380.1875 1408.3125 C-380.147508 1410.31210012 -380.14403201 1412.31297242 -380.1875 1414.3125 C-381.280625 1414.725 -382.37375 1415.1375 -383.5 1415.5625 C-386.13067232 1417.06124957 -387.03114013 1417.8635033 -388.0390625 1420.7578125 C-388.44641549 1422.79457747 -388.84836619 1424.83242732 -389.24609375 1426.87109375 C-390.99749424 1433.27351629 -394.71689865 1438.7077587 -398.1875 1444.3125 C-398.72375 1445.27285156 -399.26 1446.23320313 -399.8125 1447.22265625 C-400.493125 1448.25712891 -400.493125 1448.25712891 -401.1875 1449.3125 C-401.8475 1449.3125 -402.5075 1449.3125 -403.1875 1449.3125 C-403.414375 1449.93125 -403.64125 1450.55 -403.875 1451.1875 C-405.56679835 1453.92660209 -407.17994161 1454.36274472 -410.1875 1455.3125 C-411.6725 1453.8275 -411.6725 1453.8275 -413.1875 1452.3125 C-412.1975 1449.6725 -411.2075 1447.0325 -410.1875 1444.3125 C-409.5275 1444.3125 -408.8675 1444.3125 -408.1875 1444.3125 C-407.919375 1443.508125 -407.65125 1442.70375 -407.375 1441.875 C-406.983125 1441.029375 -406.59125 1440.18375 -406.1875 1439.3125 C-405.1975 1438.9825 -404.2075 1438.6525 -403.1875 1438.3125 C-402.48371596 1436.99838043 -401.82393673 1435.66052467 -401.1875 1434.3125 C-399.9056374 1432.66322455 -398.59019067 1431.03973913 -397.25 1429.4375 C-391.72907383 1422.67451407 -391.72907383 1422.67451407 -390.1875 1414.3125 C-394.77576282 1416.24976652 -396.99278594 1417.80114333 -399.1875 1422.3125 C-401.4975 1421.6525 -403.8075 1420.9925 -406.1875 1420.3125 C-406.1875 1419.3225 -406.1875 1418.3325 -406.1875 1417.3125 C-405.5275 1416.77625 -404.8675 1416.24 -404.1875 1415.6875 C-401.76819555 1412.81457596 -401.5739763 1410.77964513 -401.71484375 1407.07421875 C-402.51778182 1402.38267152 -404.37102036 1398.07284706 -406.07421875 1393.64453125 C-407.43973366 1389.55756909 -407.61238078 1386.56130778 -407.1875 1382.3125 C-405.5375 1381.6525 -403.8875 1380.9925 -402.1875 1380.3125 C-402.3525 1379.6525 -402.5175 1378.9925 -402.6875 1378.3125 C-403.33825976 1374.40794147 -403.57163283 1371.28187254 -403.1875 1367.3125 C-400.6875 1365.3125 -400.6875 1365.3125 -398.1875 1364.3125 C-398.538125 1363.590625 -398.88875 1362.86875 -399.25 1362.125 C-400.32219486 1358.90841541 -400.24984365 1357.49953095 -399.1875 1354.3125 C-397.625 1352 -397.625 1352 -396.1875 1350.3125 C-396.80625 1350.209375 -397.425 1350.10625 -398.0625 1350 C-400.1875 1349.3125 -400.1875 1349.3125 -402.1875 1346.3125 C-402.07276678 1342.98523649 -400.82870709 1341.91099365 -398.5625 1339.375 C-395.85119584 1336.57759667 -395.85119584 1336.57759667 -396.375 1333.4375 C-396.643125 1332.73625 -396.91125 1332.035 -397.1875 1331.3125 C-396.5275 1331.3125 -395.8675 1331.3125 -395.1875 1331.3125 C-395.579375 1330.466875 -395.97125 1329.62125 -396.375 1328.75 C-397.80460884 1322.70165492 -394.23794763 1318.35237 -391.1875 1313.3125 C-389.03760306 1308.48155511 -388.06456322 1303.522607 -386.96875 1298.37109375 C-386.29589856 1295.73688035 -385.52073421 1293.66289997 -384.1875 1291.3125 C-383.5275 1291.3125 -382.8675 1291.3125 -382.1875 1291.3125 C-382.1875 1290.6525 -382.1875 1289.9925 -382.1875 1289.3125 C-380.8675 1288.9825 -379.5475 1288.6525 -378.1875 1288.3125 C-378.08953125 1287.74144531 -377.9915625 1287.17039062 -377.890625 1286.58203125 C-377.00675449 1281.78931963 -375.88920183 1277.17499034 -374.40625 1272.53125 C-372.10557324 1265.14825476 -370.0377854 1257.71455276 -368.04052734 1250.24487305 C-367.63578254 1248.73814087 -367.22653999 1247.23261027 -366.81298828 1245.72827148 C-366.20404526 1243.51278082 -365.60843938 1241.29407234 -365.015625 1239.07421875 C-364.8313092 1238.41258224 -364.64699341 1237.75094574 -364.45709229 1237.06925964 C-362.68524776 1230.30984879 -362.48350859 1224.8020794 -365.1875 1218.3125 C-365.08430619 1215.11349175 -363.60135813 1213.55578384 -361.5625 1211.25 C-360.77875 1210.280625 -359.995 1209.31125 -359.1875 1208.3125 C-359.6825 1206.8275 -359.6825 1206.8275 -360.1875 1205.3125 C-360.54954658 1201.40239689 -360.65642871 1199.10030023 -358.625 1195.6875 C-356.17153386 1193.29694325 -353.75800574 1191.66039946 -350.7734375 1190.01171875 C-346.75555491 1185.70684455 -347.0077641 1178.74920928 -346.76000977 1173.16357422 C-346.13956947 1160.92306139 -342.9227616 1150.36543688 -338.83203125 1138.8828125 C-335.74010343 1130.19835586 -333.09117597 1121.38890913 -330.4375 1112.5625 C-328.70590188 1106.80676323 -326.96556992 1101.05407701 -325.1875 1095.3125 C-324.97078644 1094.61151184 -324.75407288 1093.91052368 -324.53079224 1093.18829346 C-323.89188796 1091.14018195 -323.23942604 1089.09692992 -322.58203125 1087.0546875 C-322.01899292 1085.28907471 -322.01899292 1085.28907471 -321.44458008 1083.48779297 C-320.1836219 1080.30270419 -318.69404844 1077.90327089 -316.625 1075.1875 C-311.67139513 1068.66507449 -309.85372566 1061.2652737 -308.45703125 1053.2890625 C-308.33682617 1052.61641357 -308.21662109 1051.94376465 -308.09277344 1051.25073242 C-307.76664527 1049.34715671 -307.47799572 1047.43727217 -307.19140625 1045.52734375 C-306.1875 1042.3125 -306.1875 1042.3125 -303.58984375 1040.31640625 C-302.79707031 1039.65511719 -302.00429688 1038.99382812 -301.1875 1038.3125 C-300.9840715 1034.94034691 -300.9840715 1034.94034691 -301.1875 1031.3125 C-300.12109375 1027.83984375 -300.12109375 1027.83984375 -298.625 1024.25 C-298.21954956 1023.27075562 -298.21954956 1023.27075562 -297.8059082 1022.27172852 C-296.00486825 1018.00192839 -293.99538848 1013.87187666 -291.875 1009.75 C-283.76836236 993.80694598 -274.90653224 975.59505275 -275.1875 957.3125 C-275.54763184 958.14551636 -275.54763184 958.14551636 -275.91503906 958.99536133 C-282.44609114 974.08958729 -289.07453514 989.13861511 -295.77978516 1004.15625 C-297.07985835 1007.0711557 -298.37458021 1009.98837385 -299.66796875 1012.90625 C-303.95441935 1022.54600515 -308.44448323 1032.04101923 -313.2421875 1041.43652344 C-314.19395171 1043.32530345 -315.11640426 1045.22590648 -316.03125 1047.1328125 C-323.98241169 1063.64028001 -323.98241169 1063.64028001 -330.0625 1066.8125 C-339.54987898 1068.33048064 -339.54987898 1068.33048064 -343.5 1065.875 C-346.43725058 1061.4147306 -348.41025803 1056.81346513 -347.9296875 1051.41796875 C-347.12290586 1048.0422245 -345.94056198 1045.15713715 -344.5 1042 C-341.1938227 1034.58052247 -338.530769 1026.98561576 -335.89038086 1019.30957031 C-335.18178825 1017.29627142 -334.43687355 1015.30017557 -333.6796875 1013.3046875 C-332.18126377 1009.34011811 -330.82534103 1005.33776463 -329.5 1001.3125 C-328.97937832 999.73821124 -328.45853244 998.16399661 -327.9375 996.58984375 C-327.6590625 995.7479248 -327.380625 994.90600586 -327.09375 994.03857422 C-326.11243259 991.08669109 -325.11960298 988.13883852 -324.125 985.19140625 C-323.77268311 984.14404297 -323.42036621 983.09667969 -323.05737305 982.01757812 C-322.37103527 979.97773978 -321.68252305 977.9386313 -320.99145508 975.90039062 C-319.12574511 970.34028435 -317.4466088 964.77857142 -316.00268555 959.09350586 C-315.13680878 956.13956687 -314.07376093 953.30975844 -312.97660828 950.43574524 C-311.67158316 946.92432804 -310.54602984 943.35805875 -309.41015625 939.7890625 C-308.89136246 938.1744514 -308.37247948 936.55986895 -307.85351562 934.9453125 C-307.05148278 932.44248022 -306.25057409 929.93929861 -305.45141602 927.43554688 C-302.62953238 918.60424099 -299.78399113 909.86531895 -296.1875 901.3125 C-295.68533444 900.02398414 -295.18768491 898.73369599 -294.6953125 897.44140625 C-291.16308528 888.33145298 -287.27157925 879.7713513 -281.7265625 871.6875 C-281.28795898 871.04619141 -280.84935547 870.40488281 -280.39746094 869.74414062 C-279.54097215 868.50483205 -278.67275678 867.27349979 -277.79003906 866.05273438 C-271.76588445 857.41414428 -269.71358859 847.96578524 -268.3125 837.6875 C-266.85912862 828.2145036 -264.68466612 819.71891699 -261.15917969 810.83349609 C-259.97805939 807.76911212 -258.88414513 804.67819086 -257.7890625 801.58203125 C-256.92223403 799.15872571 -256.05504546 796.73554895 -255.1875 794.3125 C-254.78450684 793.16612061 -254.38151367 792.01974121 -253.96630859 790.83862305 C-251.45173932 783.93642819 -248.42525044 778.28283252 -244.1875 772.3125 C-241.03553809 767.08944808 -240.34247593 762.05551419 -239.4375 756.125 C-238.1618717 748.59639351 -236.57795181 742.76184748 -231.87109375 736.56640625 C-227.27323558 730.41103696 -226.02695718 723.89008486 -224.5625 716.5 C-224.3459375 715.45779297 -224.129375 714.41558594 -223.90625 713.34179688 C-222.6855383 707.33996437 -221.76095623 701.4102513 -221.1875 695.3125 C-222.8375 695.6425 -224.4875 695.9725 -226.1875 696.3125 C-225.81962382 687.85134796 -220.87929392 680.41085063 -215.1875 674.3125 C-214.5275 674.3125 -213.8675 674.3125 -213.1875 674.3125 C-212.94386719 673.68730469 -212.70023438 673.06210937 -212.44921875 672.41796875 C-211.07229161 669.02893756 -209.62202537 665.67647699 -208.16723633 662.3203125 C-204.51048314 653.87635617 -200.95760279 645.41526481 -197.74731445 636.7902832 C-196.12230496 632.48915643 -194.28771954 628.33187562 -192.3359375 624.16796875 C-189.11330949 617.25625997 -186.27067563 610.22800481 -183.5 603.125 C-183.02755859 601.93197266 -182.55511719 600.73894531 -182.06835938 599.50976562 C-176.64468247 588.14199109 -176.64468247 588.14199109 -176.1875 576.3125 C-176.95792704 568.31689983 -175.26410668 560.86612399 -173.4375 553.125 C-173.18484375 552.00802734 -172.9321875 550.89105469 -172.671875 549.74023438 C-169.26204262 534.8648406 -165.07739004 520.18505558 -160.9375 505.5 C-160.69861053 504.65232056 -160.45972107 503.80464111 -160.21359253 502.93127441 C-157.15941919 492.11057125 -154.05082333 481.31098607 -150.75 470.5625 C-150.29222168 469.06819458 -150.29222168 469.06819458 -149.82519531 467.54370117 C-146.76168446 457.69730649 -143.63133069 448.34252348 -138.25 439.5 C-137.83298828 438.78908203 -137.41597656 438.07816406 -136.98632812 437.34570312 C-135.00945287 434.03665228 -133.00700754 431.01008305 -130.4453125 428.125 C-128.11671168 425.22432078 -127.46559751 423.74570538 -127 420.125 C-126.78923828 418.70574219 -126.78923828 418.70574219 -126.57421875 417.2578125 C-126.44660156 416.28585937 -126.31898438 415.31390625 -126.1875 414.3125 C-125.10831384 406.70776759 -123.98474844 401.50146975 -118.67285156 395.64160156 C-114.03243706 390.18279185 -113.4849014 386.25991159 -113.6875 379.25 C-113.62452572 367.74145021 -111.00269663 357.56863264 -107.81494141 346.57910156 C-106.52528942 341.92029647 -106.09086451 337.42336588 -105.8972168 332.60302734 C-105.48341583 322.63602887 -104.16866748 314.58058445 -98.1875 306.3125 C-97.2695041 304.80494074 -96.37490234 303.28297009 -95.5 301.75 C-95.08363281 301.02683594 -94.66726563 300.30367188 -94.23828125 299.55859375 C-91.97565074 294.72211589 -92.01812867 289.70213217 -91.94140625 284.44921875 C-91.90846146 282.9068955 -91.87524992 281.36457793 -91.84179688 279.82226562 C-91.79452202 277.41320752 -91.75006817 275.00417137 -91.71069336 272.5949707 C-91.67063378 270.25448362 -91.61917506 267.91444921 -91.56640625 265.57421875 C-91.5579921 264.86561203 -91.54957794 264.15700531 -91.54090881 263.42692566 C-91.26576538 252.11857237 -87.17476657 242.91568458 -80.6875 233.8125 C-72.82163574 222.73426503 -69.79676127 210.89570476 -66.58984375 197.828125 C-66.29762939 196.65620605 -66.00541504 195.48428711 -65.7043457 194.27685547 C-65.12381885 191.94044547 -64.55530309 189.60100744 -64.00073242 187.25830078 C-60.45699427 173.0275087 -54.33420503 162.28720522 -43.125 152.8125 C-33.76659398 144.85141983 -29.03323136 134.63654899 -24.3125 123.5625 C-23.97992188 122.82128906 -23.64734375 122.08007812 -23.3046875 121.31640625 C-21.42254933 117.25222357 -21.42254933 117.25222357 -21.94140625 113.0078125 C-22.35261719 112.44835937 -22.76382812 111.88890625 -23.1875 111.3125 C-24.54971905 105.65405166 -23.76725068 103.36881133 -21.1875 98.3125 C-20.52294118 93.50868908 -21.3695533 89.74374508 -23.1875 85.3125 C-23.26655064 82.98050612 -23.27548769 80.64417378 -23.1875 78.3125 C-23.1875 77.6525 -23.1875 76.9925 -23.1875 76.3125 C-24.1775 75.9825 -25.1675 75.6525 -26.1875 75.3125 C-26.1875 74.3225 -26.1875 73.3325 -26.1875 72.3125 C-23.1875 70.125 -23.1875 70.125 -20.1875 68.3125 C-20.5175 65.3425 -20.8475 62.3725 -21.1875 59.3125 C-18.2175 59.9725 -15.2475 60.6325 -12.1875 61.3125 C-13.1775 58.3425 -14.1675 55.3725 -15.1875 52.3125 C-15.97125 52.498125 -16.755 52.68375 -17.5625 52.875 C-20.1875 53.3125 -20.1875 53.3125 -22.1875 52.3125 C-22.73928128 37.41440555 -22.73928128 37.41440555 -18.68359375 32.484375 C-18.12800781 31.97390625 -17.57242187 31.4634375 -17 30.9375 C-16.071875 30.07125 -15.14375 29.205 -14.1875 28.3125 C-14.49915691 25.32426026 -15.80496752 22.88799396 -17.1875 20.25 C-20.3965703 14.1032146 -20.3965703 14.1032146 -19.578125 11.0078125 C-16.69073602 4.50129897 -13.59546499 1.41690038 -6.92578125 -1.19140625 C-3.8490583 -1.7488154 -2.68392086 -1.52507927 0 0 Z " fill="#BC0203" transform="translate(464.1875,7.6875)"/>
<path d="M0 0 C0.99 0 1.98 0 3 0 C2.05877441 9.0065552 -0.03478901 17.31520753 -5 25 C-7.38939016 26.78698035 -9.05095697 27.2210075 -12 28 C-13.01868662 28.98095748 -14.02351983 29.97702078 -15 31 C-16.32 31.33 -17.64 31.66 -19 32 C-18.67 28.37 -18.34 24.74 -18 21 C-14.37673261 19.7922442 -13.35853631 20.45688872 -10 22 C-6.41257834 17.42294478 -5.12899626 13.18105814 -3.71484375 7.5703125 C-2.90176113 4.64676952 -1.94370375 2.34864203 0 0 Z " fill="#BA0203" transform="translate(578,324)"/>
<path d="M0 0 C1.65 0 3.3 0 5 0 C5.495 0.99 5.495 0.99 6 2 C4.7934375 2.4021875 4.7934375 2.4021875 3.5625 2.8125 C2.716875 3.204375 1.87125 3.59625 1 4 C0.67 4.99 0.34 5.98 0 7 C-0.66 7.66 -1.32 8.32 -2 9 C-2 9.66 -2 10.32 -2 11 C-16.355 11.99 -16.355 11.99 -31 13 C-31.33 12.01 -31.66 11.02 -32 10 C-31.67 9.34 -31.34 8.68 -31 8 C-22.42 8 -13.84 8 -5 8 C-5 7.01 -5 6.02 -5 5 C-3.68 4.67 -2.36 4.34 -1 4 C-0.67 2.68 -0.34 1.36 0 0 Z " fill="#B80103" transform="translate(33,1482)"/>
<path d="M0 0 C0.99 0.33 1.98 0.66 3 1 C2.67 1.66 2.34 2.32 2 3 C1.01 3 0.02 3 -1 3 C-1.66 4.32 -2.32 5.64 -3 7 C-3.66 7 -4.32 7 -5 7 C-5.26683594 7.73476562 -5.53367188 8.46953125 -5.80859375 9.2265625 C-6.98054686 11.95471563 -8.29832529 13.9977433 -10.0625 16.375 C-13.14621271 20.66650019 -15.88657113 25.07530084 -18.5625 29.625 C-25.96716829 42.12340507 -25.96716829 42.12340507 -29 45 C-29.99 45 -30.98 45 -32 45 C-30.71512712 42.19936384 -29.33523383 40.10338226 -27.23828125 37.85546875 C-23.58319735 33.69294974 -20.93731452 29.10179444 -18.1875 24.3125 C-6.43526786 4.29017857 -6.43526786 4.29017857 0 0 Z " fill="#AF0001" transform="translate(166,1366)"/>
<path d="M0 0 C1.65 0.33 3.3 0.66 5 1 C4.75737506 5.12462395 4.39437803 7.47802908 1.875 10.8125 C-1.50395005 13.38344026 -3.89046373 14.11362943 -8 15 C-8.33 13.68 -8.66 12.36 -9 11 C-8.2575 10.67 -7.515 10.34 -6.75 10 C-3.04774589 7.30745156 -1.75910085 4.13732658 0 0 Z " fill="#B80203" transform="translate(46,1467)"/>
<path d="M0 0 C0 0.66 0 1.32 0 2 C-1.8708878 2.67812114 -3.74694293 3.3419946 -5.625 4 C-6.66914062 4.37125 -7.71328125 4.7425 -8.7890625 5.125 C-12.07802827 6.02126318 -14.61347159 6.38814079 -18 6 C-18.66 5.01 -19.32 4.02 -20 3 C-6.3667426 -1.77676538 -6.3667426 -1.77676538 0 0 Z " fill="#BA0203" transform="translate(647,15)"/>
<path d="M0 0 C0.99 0 1.98 0 3 0 C4.19334591 3.58003773 4.33543224 6.24315896 4 10 C2.3125 12 2.3125 12 0 13 C-2.75 12.6875 -2.75 12.6875 -5 12 C-5.33 10.68 -5.66 9.36 -6 8 C-3.69 7.34 -1.38 6.68 1 6 C0.67 4.02 0.34 2.04 0 0 Z " fill="#B80203" transform="translate(476,35)"/>
<path d="M0 0 C-0.33 0.66 -0.66 1.32 -1 2 C-1.969375 2.309375 -2.93875 2.61875 -3.9375 2.9375 C-7.2680443 3.74744122 -7.2680443 3.74744122 -9 7 C-11.86434844 9.12173958 -13.10020012 8.98997999 -16.75 8.625 C-17.8225 8.41875 -18.895 8.2125 -20 8 C-20 7.34 -20 6.68 -20 6 C-19.07767578 5.72736328 -19.07767578 5.72736328 -18.13671875 5.44921875 C-16.92435547 5.07216797 -16.92435547 5.07216797 -15.6875 4.6875 C-14.48673828 4.32205078 -14.48673828 4.32205078 -13.26171875 3.94921875 C-10.87646731 2.94815467 -9.75325398 1.85372698 -8 0 C-4.67259596 -0.99822121 -3.34955444 -1.11651815 0 0 Z " fill="#B60102" transform="translate(619,2)"/>
<path d="M0 0 C2 3 2 3 1.625 5.6875 C1.41875 6.450625 1.2125 7.21375 1 8 C-1.31 8 -3.62 8 -6 8 C-6.33 8.99 -6.66 9.98 -7 11 C-7.66 10.67 -8.32 10.34 -9 10 C-7.57895263 4.78949296 -6.03245847 0 0 0 Z " fill="#BA0203" transform="translate(426,29)"/>
<path d="M0 0 C0.99 0.33 1.98 0.66 3 1 C2.32359407 5.22753707 0.2825056 8.44197656 -2 12 C-2.99 12.33 -3.98 12.66 -5 13 C-5.6875 11.3125 -5.6875 11.3125 -6 9 C-4.625 6.4375 -4.625 6.4375 -3 4 C-2.67 3.01 -2.34 2.02 -2 1 C-1.34 0.67 -0.68 0.34 0 0 Z " fill="#B60103" transform="translate(117,1339)"/>
<path d="M0 0 C0.99 0.33 1.98 0.66 3 1 C3 1.99 3 2.98 3 4 C2.34 4 1.68 4 1 4 C1.66 6.31 2.32 8.62 3 11 C-0.75 14 -0.75 14 -3 14 C-4.36231121 10.32175974 -3.49395375 8.51518529 -2 5 C-2 3.68 -2 2.36 -2 1 C-1.34 0.67 -0.68 0.34 0 0 Z " fill="#B70102" transform="translate(220,1176)"/>
<path d="M0 0 C0 0.99 0 1.98 0 3 C-4.455 3.495 -4.455 3.495 -9 4 C-9 3.01 -9 2.02 -9 1 C-5.64919071 -1.10976881 -3.77897651 -1.0497157 0 0 Z " fill="#B50203" transform="translate(208,1234)"/>
<path d="M0 0 C2.625 0.375 2.625 0.375 5 1 C4.67 1.99 4.34 2.98 4 4 C3.34 4 2.68 4 2 4 C2 4.66 2 5.32 2 6 C1.01 6 0.02 6 -1 6 C-1.625 4.125 -1.625 4.125 -2 2 C-1.34 1.34 -0.68 0.68 0 0 Z " fill="#BC0203" transform="translate(529,410)"/>
<path d="M0 0 C0.598125 0.20625 1.19625 0.4125 1.8125 0.625 C2.1425 1.945 2.4725 3.265 2.8125 4.625 C-0.0625 4.8125 -0.0625 4.8125 -3.1875 4.625 C-3.8475 3.635 -4.5075 2.645 -5.1875 1.625 C-2.1875 -0.375 -2.1875 -0.375 0 0 Z " fill="#B70102" transform="translate(478.1875,10.375)"/>
<path d="M0 0 C2.97 0.495 2.97 0.495 6 1 C5.67 2.65 5.34 4.3 5 6 C3.68 5.67 2.36 5.34 1 5 C0.67 3.35 0.34 1.7 0 0 Z " fill="#B60203" transform="translate(532,397)"/>
<path d="M0 0 C0.66 0.33 1.32 0.66 2 1 C1.42655063 3.86724686 1.1385485 4.8614515 -1 7 C-3.125 6.625 -3.125 6.625 -5 6 C-3.35 4.02 -1.7 2.04 0 0 Z " fill="#B80103" transform="translate(317,1046)"/>
<path d="M0 0 C2.03833424 1.2739589 4.03852126 2.61061923 6 4 C6 4.66 6 5.32 6 6 C4.68 6.33 3.36 6.66 2 7 C0 4 0 4 0 0 Z " fill="#B90203" transform="translate(417,41)"/>
<path d="M0 0 C-0.66 1.98 -1.32 3.96 -2 6 C-3.32 5.34 -4.64 4.68 -6 4 C-6 3.34 -6 2.68 -6 2 C-2.25 0 -2.25 0 0 0 Z " fill="#B60102" transform="translate(270,1185)"/>
<path d="M0 0 C0.99 0.33 1.98 0.66 3 1 C2.67 2.32 2.34 3.64 2 5 C1.01 5 0.02 5 -1 5 C-1.33 4.01 -1.66 3.02 -2 2 C-1.34 1.34 -0.68 0.68 0 0 Z " fill="#B40102" transform="translate(188,1174)"/>
<path d="M0 0 C0.66 0.33 1.32 0.66 2 1 C1.67 2.32 1.34 3.64 1 5 C-0.32 4.67 -1.64 4.34 -3 4 C-2.01 2.68 -1.02 1.36 0 0 Z " fill="#B80102" transform="translate(337,1006)"/>
<path d="M0 0 C2.475 0.495 2.475 0.495 5 1 C5 1.66 5 2.32 5 3 C3.35 3 1.7 3 0 3 C0 2.01 0 1.02 0 0 Z " fill="#BC0203" transform="translate(93,1397)"/>
<path d="M0 0 C1.32 0 2.64 0 4 0 C4 0.99 4 1.98 4 3 C2.35 3 0.7 3 -1 3 C-0.67 2.01 -0.34 1.02 0 0 Z " fill="#B70102" transform="translate(424,108)"/>
<path d="M0 0 C0.99 0 1.98 0 3 0 C2.67 0.99 2.34 1.98 2 3 C-0.0625 3.6875 -0.0625 3.6875 -2 4 C-1.34 2.68 -0.68 1.36 0 0 Z " fill="#B40001" transform="translate(217,1156)"/>
<path d="M0 0 C1.32 0 2.64 0 4 0 C4 0.66 4 1.32 4 2 C2.68 2 1.36 2 0 2 C0 1.34 0 0.68 0 0 Z " fill="#B50102" transform="translate(92,1417)"/>
</svg>
