<svg width="" xmlns="http://www.w3.org/2000/svg" height="" viewBox="0 0 1475 400" fill="inherit"><path d="M1164.000,584.832L164.000,575.832C164.000,575.832,250.000,555.832,174.000,529.832C174.000,529.832,290.000,569.832,264.000,523.832C264.000,523.832,511.000,592.832,345.000,457.832L271.000,424.832C271.000,424.832,220.000,382.832,135.000,424.832C50.000,466.832,0.000,391.832,0.000,391.832C0.000,391.832,84.000,410.832,102.000,381.832C120.000,352.832,238.000,339.832,238.000,339.832C238.000,339.832,323.000,334.832,371.000,387.832C419.000,440.832,443.000,383.832,443.000,383.832C443.000,383.832,438.000,343.832,397.000,341.832C356.000,339.832,530.000,277.832,561.000,381.832C592.000,485.832,737.000,356.832,627.000,328.832C627.000,328.832,508.000,227.832,421.000,225.832C334.000,223.832,302.000,239.832,257.000,263.832C212.000,287.832,266.000,191.832,286.000,171.832C306.000,151.832,386.000,107.832,469.000,127.832C552.000,147.832,655.000,180.832,655.000,180.832C655.000,180.832,669.000,130.832,614.000,110.832C559.000,90.832,709.000,89.832,729.000,156.832C749.000,223.832,886.000,168.832,821.000,127.832C756.000,86.832,731.000,23.832,670.000,39.832C670.000,39.832,730.000,-22.168,806.000,26.832C882.000,75.832,818.000,1.832,818.000,1.832C818.000,1.832,906.000,-21.168,1053.000,95.832C1200.000,212.832,1047.000,53.832,1047.000,53.832C1047.000,53.832,1178.000,49.832,1346.000,138.832C1346.000,138.832,715.000,275.832,1164.000,584.832Z" style="fill: inherit; fill-opacity: 1;" class="fills"/><g style="fill: inherit;" xml:space="preserve"><g class="fills"><path d="M1408.048,176.791C1327.987,96.730,1183.154,111.768,1084.542,210.380C985.936,308.986,970.898,453.819,1050.959,533.880C1131.016,613.936,1275.849,598.899,1374.455,500.293C1473.067,401.681,1488.104,256.847,1408.048,176.791ZZM1115.695,469.144C1064.662,418.110,1074.240,325.795,1137.099,262.937C1199.958,200.078,1292.278,190.493,1343.312,241.527C1394.341,292.557,1384.755,384.876,1321.897,447.735C1259.038,510.594,1166.725,520.173,1115.695,469.144ZZ" class="st0" style="fill: inherit; fill-opacity: 1;"/></g><g class="fills"><path d="M1218.498,366.341C1223.434,371.277,1232.354,370.351,1238.434,364.271C1244.514,358.191,1245.446,349.266,1240.509,344.330C1235.569,339.389,1226.644,340.320,1220.563,346.401C1214.482,352.480,1213.558,361.401,1218.498,366.341ZZ" class="st0" style="fill: inherit; fill-opacity: 1;"/></g><g class="fills"><path d="M1211.285,254.331C1209.852,257.018,1209.610,259.963,1210.633,262.344L1229.722,306.944C1231.514,311.085,1235.389,313.708,1240.164,313.974C1244.948,314.224,1250.053,312.117,1253.891,308.280L1295.109,267.061C1297.305,264.865,1298.570,261.963,1298.522,259.201C1298.499,256.426,1297.164,254.100,1294.933,252.860C1294.933,252.860,1295.850,252.893,1291.383,250.918C1270.517,241.727,1245.804,240.685,1221.391,247.414C1216.371,248.792,1217.986,248.577,1217.986,248.577C1215.200,249.533,1212.737,251.651,1211.285,254.331ZZ" class="st0" style="fill: inherit; fill-opacity: 1;"/></g><g class="fills"><path d="M1194.721,340.451C1197.418,335.828,1197.962,330.634,1196.170,326.494L1177.077,281.924C1176.059,279.549,1173.886,278.014,1171.191,277.737C1168.483,277.473,1165.541,278.509,1163.192,280.551C1163.192,280.551,1163.696,279.664,1159.507,283.785C1139.955,303.049,1126.392,326.946,1120.498,351.415C1119.288,356.439,1119.894,354.837,1119.894,354.837C1119.409,357.669,1120.215,360.294,1122.078,361.979C1123.954,363.677,1126.693,364.245,1129.520,363.507L1182.587,349.814C1187.516,348.546,1192.037,345.051,1194.721,340.451ZZ" class="st0" style="fill: inherit; fill-opacity: 1;"/></g><g class="fills"><path d="M1200.279,400.327C1201.538,395.388,1200.451,390.618,1197.336,387.503C1194.217,384.383,1189.446,383.297,1184.522,384.569L1131.500,398.237C1128.679,398.969,1126.065,400.911,1124.428,403.525C1122.784,406.119,1122.301,409.084,1123.098,411.594C1123.098,411.594,1122.477,411.008,1124.361,415.536C1133.135,436.646,1149.466,452.434,1170.241,460.825C1174.505,462.551,1173.262,461.791,1173.262,461.791C1175.760,462.590,1178.732,462.091,1181.319,460.453C1183.924,458.806,1185.850,456.199,1186.582,453.378L1200.279,400.327ZZ" class="st0" style="fill: inherit; fill-opacity: 1;"/></g><g class="fills"><path d="M1302.946,407.769L1258.346,388.669C1254.210,386.882,1249.008,387.417,1244.393,390.123C1239.784,392.797,1236.288,397.317,1235.036,402.251L1221.348,455.265C1220.614,458.107,1221.199,460.829,1222.879,462.723C1224.568,464.600,1227.210,465.388,1230.039,464.889C1230.039,464.889,1229.165,465.419,1234.507,464.091C1259.487,457.870,1283.162,443.730,1301.878,424.468C1305.721,420.519,1304.336,421.637,1304.336,421.637C1306.378,419.288,1307.419,416.350,1307.138,413.650C1306.856,410.960,1305.332,408.786,1302.946,407.769ZZ" class="st0" style="fill: inherit; fill-opacity: 1;"/></g><g class="fills"><path d="M1270.863,344.675C1271.140,349.450,1273.749,353.321,1277.890,355.113L1322.466,374.179C1324.842,375.206,1327.793,374.959,1330.479,373.527C1333.169,372.084,1335.283,369.605,1336.236,366.793C1336.236,366.793,1336.317,367.700,1337.733,362.363C1344.403,337.406,1342.697,312.869,1333.500,292.563C1331.600,288.396,1331.993,289.853,1331.993,289.853C1330.750,287.617,1328.417,286.299,1325.657,286.278C1322.901,286.226,1320.003,287.495,1317.813,289.685L1276.558,330.940C1272.717,334.781,1270.610,339.888,1270.863,344.675ZZ" class="st0" style="fill: inherit; fill-opacity: 1;"/></g></g></svg>
